<mxfile host="app.diagrams.net" modified="2022-11-12T13:47:29.116Z" agent="5.0 (Windows NT 10.0; Win64; x64) AppleWebKit/537.36 (KHTML, like Gecko) Chrome/107.0.0.0 Safari/537.36" etag="PNZD6jXdJhFrU7wGCZkS" version="20.5.3" type="github">
  <diagram id="prtHgNgQTEPvFCAcTncT" name="Page-1">
    <mxGraphModel dx="868" dy="450" grid="1" gridSize="10" guides="1" tooltips="1" connect="1" arrows="1" fold="1" page="1" pageScale="1" pageWidth="827" pageHeight="1169" math="0" shadow="0">
      <root>
        <mxCell id="0" />
        <mxCell id="1" parent="0" />
        <mxCell id="JWXHLrIVBQ-oLd-Sn9ve-16" style="edgeStyle=orthogonalEdgeStyle;rounded=0;orthogonalLoop=1;jettySize=auto;html=1;entryX=0;entryY=0.5;entryDx=0;entryDy=0;" edge="1" parent="1" source="JWXHLrIVBQ-oLd-Sn9ve-11" target="JWXHLrIVBQ-oLd-Sn9ve-14">
          <mxGeometry relative="1" as="geometry" />
        </mxCell>
        <mxCell id="JWXHLrIVBQ-oLd-Sn9ve-17" style="edgeStyle=orthogonalEdgeStyle;rounded=0;orthogonalLoop=1;jettySize=auto;html=1;entryX=0;entryY=0.5;entryDx=0;entryDy=0;" edge="1" parent="1" source="JWXHLrIVBQ-oLd-Sn9ve-11" target="JWXHLrIVBQ-oLd-Sn9ve-13">
          <mxGeometry relative="1" as="geometry" />
        </mxCell>
        <mxCell id="JWXHLrIVBQ-oLd-Sn9ve-18" style="edgeStyle=orthogonalEdgeStyle;rounded=0;orthogonalLoop=1;jettySize=auto;html=1;exitX=1;exitY=0.5;exitDx=0;exitDy=0;entryX=0;entryY=0.5;entryDx=0;entryDy=0;" edge="1" parent="1" source="JWXHLrIVBQ-oLd-Sn9ve-11" target="JWXHLrIVBQ-oLd-Sn9ve-12">
          <mxGeometry relative="1" as="geometry" />
        </mxCell>
        <mxCell id="JWXHLrIVBQ-oLd-Sn9ve-19" style="edgeStyle=orthogonalEdgeStyle;rounded=0;orthogonalLoop=1;jettySize=auto;html=1;entryX=0;entryY=0.5;entryDx=0;entryDy=0;" edge="1" parent="1" source="JWXHLrIVBQ-oLd-Sn9ve-11" target="JWXHLrIVBQ-oLd-Sn9ve-15">
          <mxGeometry relative="1" as="geometry" />
        </mxCell>
        <mxCell id="JWXHLrIVBQ-oLd-Sn9ve-11" value="用户" style="ellipse;whiteSpace=wrap;html=1;aspect=fixed;" vertex="1" parent="1">
          <mxGeometry x="40" y="200" width="60" height="60" as="geometry" />
        </mxCell>
        <mxCell id="JWXHLrIVBQ-oLd-Sn9ve-21" value="" style="edgeStyle=orthogonalEdgeStyle;rounded=0;orthogonalLoop=1;jettySize=auto;html=1;" edge="1" parent="1" source="JWXHLrIVBQ-oLd-Sn9ve-12" target="JWXHLrIVBQ-oLd-Sn9ve-20">
          <mxGeometry relative="1" as="geometry" />
        </mxCell>
        <mxCell id="JWXHLrIVBQ-oLd-Sn9ve-22" value="" style="edgeStyle=orthogonalEdgeStyle;rounded=0;orthogonalLoop=1;jettySize=auto;html=1;" edge="1" parent="1" source="JWXHLrIVBQ-oLd-Sn9ve-12" target="JWXHLrIVBQ-oLd-Sn9ve-20">
          <mxGeometry relative="1" as="geometry" />
        </mxCell>
        <mxCell id="JWXHLrIVBQ-oLd-Sn9ve-24" value="" style="edgeStyle=orthogonalEdgeStyle;rounded=0;orthogonalLoop=1;jettySize=auto;html=1;" edge="1" parent="1" source="JWXHLrIVBQ-oLd-Sn9ve-12" target="JWXHLrIVBQ-oLd-Sn9ve-23">
          <mxGeometry relative="1" as="geometry" />
        </mxCell>
        <mxCell id="JWXHLrIVBQ-oLd-Sn9ve-26" value="" style="edgeStyle=orthogonalEdgeStyle;rounded=0;orthogonalLoop=1;jettySize=auto;html=1;" edge="1" parent="1" source="JWXHLrIVBQ-oLd-Sn9ve-12" target="JWXHLrIVBQ-oLd-Sn9ve-25">
          <mxGeometry relative="1" as="geometry" />
        </mxCell>
        <mxCell id="JWXHLrIVBQ-oLd-Sn9ve-12" value="购物车管理" style="ellipse;whiteSpace=wrap;html=1;" vertex="1" parent="1">
          <mxGeometry x="280" y="228" width="120" height="80" as="geometry" />
        </mxCell>
        <mxCell id="JWXHLrIVBQ-oLd-Sn9ve-13" value="&lt;br&gt;&lt;span style=&quot;color: rgb(0, 0, 0); font-family: Helvetica; font-size: 12px; font-style: normal; font-variant-ligatures: normal; font-variant-caps: normal; font-weight: 400; letter-spacing: normal; orphans: 2; text-align: center; text-indent: 0px; text-transform: none; widows: 2; word-spacing: 0px; -webkit-text-stroke-width: 0px; background-color: rgb(248, 249, 250); text-decoration-thickness: initial; text-decoration-style: initial; text-decoration-color: initial; float: none; display: inline !important;&quot;&gt;stall search&lt;br&gt;（摊位检索）&lt;/span&gt;&lt;br&gt;" style="ellipse;whiteSpace=wrap;html=1;" vertex="1" parent="1">
          <mxGeometry x="280" y="126" width="120" height="80" as="geometry" />
        </mxCell>
        <mxCell id="JWXHLrIVBQ-oLd-Sn9ve-28" value="" style="edgeStyle=orthogonalEdgeStyle;rounded=0;orthogonalLoop=1;jettySize=auto;html=1;" edge="1" parent="1" source="JWXHLrIVBQ-oLd-Sn9ve-14" target="JWXHLrIVBQ-oLd-Sn9ve-27">
          <mxGeometry relative="1" as="geometry" />
        </mxCell>
        <mxCell id="JWXHLrIVBQ-oLd-Sn9ve-30" value="" style="edgeStyle=orthogonalEdgeStyle;rounded=0;orthogonalLoop=1;jettySize=auto;html=1;" edge="1" parent="1" source="JWXHLrIVBQ-oLd-Sn9ve-14" target="JWXHLrIVBQ-oLd-Sn9ve-29">
          <mxGeometry relative="1" as="geometry" />
        </mxCell>
        <mxCell id="JWXHLrIVBQ-oLd-Sn9ve-14" value="SSO(单点登录)" style="ellipse;whiteSpace=wrap;html=1;" vertex="1" parent="1">
          <mxGeometry x="280" y="30" width="120" height="80" as="geometry" />
        </mxCell>
        <mxCell id="JWXHLrIVBQ-oLd-Sn9ve-35" value="" style="edgeStyle=orthogonalEdgeStyle;rounded=0;orthogonalLoop=1;jettySize=auto;html=1;" edge="1" parent="1" source="JWXHLrIVBQ-oLd-Sn9ve-15" target="JWXHLrIVBQ-oLd-Sn9ve-34">
          <mxGeometry relative="1" as="geometry" />
        </mxCell>
        <mxCell id="JWXHLrIVBQ-oLd-Sn9ve-37" value="" style="edgeStyle=orthogonalEdgeStyle;rounded=0;orthogonalLoop=1;jettySize=auto;html=1;" edge="1" parent="1" source="JWXHLrIVBQ-oLd-Sn9ve-15" target="JWXHLrIVBQ-oLd-Sn9ve-36">
          <mxGeometry relative="1" as="geometry" />
        </mxCell>
        <mxCell id="JWXHLrIVBQ-oLd-Sn9ve-15" value="&lt;br&gt;&lt;span style=&quot;color: rgb(0, 0, 0); font-family: Helvetica; font-size: 12px; font-style: normal; font-variant-ligatures: normal; font-variant-caps: normal; font-weight: 400; letter-spacing: normal; orphans: 2; text-align: center; text-indent: 0px; text-transform: none; widows: 2; word-spacing: 0px; -webkit-text-stroke-width: 0px; background-color: rgb(248, 249, 250); text-decoration-thickness: initial; text-decoration-style: initial; text-decoration-color: initial; float: none; display: inline !important;&quot;&gt;租赁order&lt;br&gt;（订单系统）&lt;/span&gt;&lt;br&gt;" style="ellipse;whiteSpace=wrap;html=1;" vertex="1" parent="1">
          <mxGeometry x="280" y="370" width="120" height="80" as="geometry" />
        </mxCell>
        <mxCell id="JWXHLrIVBQ-oLd-Sn9ve-20" value="新增stall" style="ellipse;whiteSpace=wrap;html=1;" vertex="1" parent="1">
          <mxGeometry x="480" y="179" width="120" height="60" as="geometry" />
        </mxCell>
        <mxCell id="JWXHLrIVBQ-oLd-Sn9ve-23" value="删除stall" style="ellipse;whiteSpace=wrap;html=1;" vertex="1" parent="1">
          <mxGeometry x="480" y="240" width="120" height="60" as="geometry" />
        </mxCell>
        <mxCell id="JWXHLrIVBQ-oLd-Sn9ve-25" value="查看购物车" style="ellipse;whiteSpace=wrap;html=1;" vertex="1" parent="1">
          <mxGeometry x="480" y="297" width="120" height="50" as="geometry" />
        </mxCell>
        <mxCell id="JWXHLrIVBQ-oLd-Sn9ve-27" value="登录" style="ellipse;whiteSpace=wrap;html=1;" vertex="1" parent="1">
          <mxGeometry x="470" y="30" width="120" height="50" as="geometry" />
        </mxCell>
        <mxCell id="JWXHLrIVBQ-oLd-Sn9ve-29" value="注册" style="ellipse;whiteSpace=wrap;html=1;" vertex="1" parent="1">
          <mxGeometry x="470" y="80" width="120" height="40" as="geometry" />
        </mxCell>
        <mxCell id="JWXHLrIVBQ-oLd-Sn9ve-34" value="生成订单" style="ellipse;whiteSpace=wrap;html=1;" vertex="1" parent="1">
          <mxGeometry x="480" y="350" width="120" height="60" as="geometry" />
        </mxCell>
        <mxCell id="JWXHLrIVBQ-oLd-Sn9ve-36" value="发送订单邮件" style="ellipse;whiteSpace=wrap;html=1;" vertex="1" parent="1">
          <mxGeometry x="480" y="410" width="120" height="60" as="geometry" />
        </mxCell>
        <mxCell id="JWXHLrIVBQ-oLd-Sn9ve-41" value="" style="edgeStyle=orthogonalEdgeStyle;rounded=0;orthogonalLoop=1;jettySize=auto;html=1;" edge="1" parent="1" source="JWXHLrIVBQ-oLd-Sn9ve-39" target="JWXHLrIVBQ-oLd-Sn9ve-40">
          <mxGeometry relative="1" as="geometry" />
        </mxCell>
        <mxCell id="JWXHLrIVBQ-oLd-Sn9ve-39" value="user" style="ellipse;whiteSpace=wrap;html=1;" vertex="1" parent="1">
          <mxGeometry x="10" y="770" width="120" height="80" as="geometry" />
        </mxCell>
        <mxCell id="JWXHLrIVBQ-oLd-Sn9ve-53" value="" style="edgeStyle=orthogonalEdgeStyle;rounded=0;orthogonalLoop=1;jettySize=auto;html=1;" edge="1" parent="1" source="JWXHLrIVBQ-oLd-Sn9ve-40" target="JWXHLrIVBQ-oLd-Sn9ve-52">
          <mxGeometry relative="1" as="geometry" />
        </mxCell>
        <mxCell id="JWXHLrIVBQ-oLd-Sn9ve-40" value="登录服务" style="whiteSpace=wrap;html=1;" vertex="1" parent="1">
          <mxGeometry x="180" y="780" width="120" height="60" as="geometry" />
        </mxCell>
        <mxCell id="JWXHLrIVBQ-oLd-Sn9ve-55" value="" style="edgeStyle=orthogonalEdgeStyle;rounded=0;orthogonalLoop=1;jettySize=auto;html=1;" edge="1" parent="1" source="JWXHLrIVBQ-oLd-Sn9ve-52" target="JWXHLrIVBQ-oLd-Sn9ve-54">
          <mxGeometry relative="1" as="geometry" />
        </mxCell>
        <mxCell id="JWXHLrIVBQ-oLd-Sn9ve-56" value="N" style="edgeLabel;html=1;align=center;verticalAlign=middle;resizable=0;points=[];" vertex="1" connectable="0" parent="JWXHLrIVBQ-oLd-Sn9ve-55">
          <mxGeometry x="-0.2031" y="3" relative="1" as="geometry">
            <mxPoint as="offset" />
          </mxGeometry>
        </mxCell>
        <mxCell id="JWXHLrIVBQ-oLd-Sn9ve-58" value="Y" style="edgeStyle=orthogonalEdgeStyle;rounded=0;orthogonalLoop=1;jettySize=auto;html=1;" edge="1" parent="1" source="JWXHLrIVBQ-oLd-Sn9ve-52" target="JWXHLrIVBQ-oLd-Sn9ve-57">
          <mxGeometry relative="1" as="geometry" />
        </mxCell>
        <mxCell id="JWXHLrIVBQ-oLd-Sn9ve-52" value="判断登录信息" style="rhombus;whiteSpace=wrap;html=1;" vertex="1" parent="1">
          <mxGeometry x="366" y="770" width="96" height="80" as="geometry" />
        </mxCell>
        <mxCell id="JWXHLrIVBQ-oLd-Sn9ve-54" value="结束流程" style="whiteSpace=wrap;html=1;" vertex="1" parent="1">
          <mxGeometry x="590" y="780" width="120" height="60" as="geometry" />
        </mxCell>
        <mxCell id="JWXHLrIVBQ-oLd-Sn9ve-60" value="" style="edgeStyle=orthogonalEdgeStyle;rounded=0;orthogonalLoop=1;jettySize=auto;html=1;" edge="1" parent="1" source="JWXHLrIVBQ-oLd-Sn9ve-57" target="JWXHLrIVBQ-oLd-Sn9ve-59">
          <mxGeometry relative="1" as="geometry" />
        </mxCell>
        <mxCell id="JWXHLrIVBQ-oLd-Sn9ve-62" value="" style="edgeStyle=orthogonalEdgeStyle;rounded=0;orthogonalLoop=1;jettySize=auto;html=1;" edge="1" parent="1" source="JWXHLrIVBQ-oLd-Sn9ve-57" target="JWXHLrIVBQ-oLd-Sn9ve-61">
          <mxGeometry relative="1" as="geometry" />
        </mxCell>
        <mxCell id="JWXHLrIVBQ-oLd-Sn9ve-57" value="生成token" style="whiteSpace=wrap;html=1;" vertex="1" parent="1">
          <mxGeometry x="354" y="900" width="120" height="60" as="geometry" />
        </mxCell>
        <mxCell id="JWXHLrIVBQ-oLd-Sn9ve-59" value="将token，用户信息写入redis缓存，并设置生命周期" style="whiteSpace=wrap;html=1;" vertex="1" parent="1">
          <mxGeometry x="590" y="900" width="120" height="60" as="geometry" />
        </mxCell>
        <mxCell id="JWXHLrIVBQ-oLd-Sn9ve-64" value="" style="edgeStyle=orthogonalEdgeStyle;rounded=0;orthogonalLoop=1;jettySize=auto;html=1;" edge="1" parent="1" source="JWXHLrIVBQ-oLd-Sn9ve-61" target="JWXHLrIVBQ-oLd-Sn9ve-63">
          <mxGeometry relative="1" as="geometry" />
        </mxCell>
        <mxCell id="JWXHLrIVBQ-oLd-Sn9ve-61" value="响应token给客户端" style="whiteSpace=wrap;html=1;" vertex="1" parent="1">
          <mxGeometry x="354" y="1040" width="120" height="60" as="geometry" />
        </mxCell>
        <mxCell id="JWXHLrIVBQ-oLd-Sn9ve-65" style="edgeStyle=orthogonalEdgeStyle;rounded=0;orthogonalLoop=1;jettySize=auto;html=1;exitX=1;exitY=0.5;exitDx=0;exitDy=0;entryX=1;entryY=0.5;entryDx=0;entryDy=0;" edge="1" parent="1" source="JWXHLrIVBQ-oLd-Sn9ve-63" target="JWXHLrIVBQ-oLd-Sn9ve-54">
          <mxGeometry relative="1" as="geometry" />
        </mxCell>
        <mxCell id="JWXHLrIVBQ-oLd-Sn9ve-63" value="存储到 cookie 中" style="whiteSpace=wrap;html=1;" vertex="1" parent="1">
          <mxGeometry x="590" y="1040" width="120" height="60" as="geometry" />
        </mxCell>
      </root>
    </mxGraphModel>
  </diagram>
</mxfile>
